PathFileType	4	(X/Y/Z)	C:\Users\°ÂÌØÂü\Desktop\20210112\bx_n_10_502-Unnamed.trc
DataRate	CameraRate	NumFrames	NumMarkers	Units	OrigDataRate	OrigDataStartFrame	OrigNumFrames
50.00	50.00	       7	0	mm	50.00	414	       473
Frame#	Time	
		

414	8.260	-693.19489	142.13065	579.86914	-618.98529	232.18977	1071.17859	-700.52100	278.36139	878.45886				-807.67621	80.25088	1056.00085	-707.43121	264.21448	747.60864	-736.27649	246.52322	645.41302	-684.16333	-91.55119	1536.90674	-589.95294	-9.53173	808.79486	-734.57092	245.13339	579.52319	-662.53253	9.64104	520.38068	-773.03070	255.71376	504.36191	-679.54639	203.81506	538.71216	-700.92163	269.73532	1545.68530	-710.96344	155.47574	217.96078	-767.84973	229.20737	205.39235	-882.64362	296.11987	144.64781	-672.12268	51.23214	162.77531	-674.63776	174.36064	159.80524	-592.10419	220.59613	174.34070	-659.42828	297.23553	157.69073	-623.56659	306.62836	158.68581	-557.04114	257.33127	164.41022	-528.02759	304.34650	146.51938	-675.39526	89.08434	1853.18494	-715.95410	66.13243	218.54538	-517.69843	-72.80712	142.88011	-550.69196	-30.84597	163.74030	-795.43567	179.58311	183.43378	-690.95184	66.33702	576.06891	-791.72552	36.47174	173.31807	-595.11810	94.16887	1362.79688	-755.80847	-52.46050	488.89035	-597.23999	22.87961	171.18425	-757.27753	-23.33223	206.57887	-876.06940	-78.91879	141.40977	-662.09772	-82.13541	875.14471	-682.51416	-69.11417	760.36395	-607.00079	-78.08746	155.65141	-648.77600	-70.13621	159.42209	-595.63788	211.35303	819.03607							-703.70227	-43.36541	617.91260	-710.76483	-40.22800	569.32574	
415	8.280	-692.97357	141.81261	580.33545	-617.03918	232.70398	1070.87244	-698.81506	278.72324	878.92120	-598.96429	-13.65188	1056.50488	-805.58270	80.16190	1055.25513	-705.61536	264.09775	747.49091	-734.33142	246.27786	645.58862	-687.88953	-91.32233	1537.41406	-588.70465	-9.09286	808.15070	-733.48376	245.00563	579.43915	-661.79370	9.60634	519.53363	-771.61993	255.57637	504.30194	-678.72827	203.59135	538.36389	-704.99060	269.59952	1545.66724	-710.94812	155.33037	218.12671	-767.66626	228.90643	205.52164	-882.57764	296.19299	144.67506	-671.99823	51.31596	162.88080	-674.56140	174.39108	159.68237	-592.19147	220.45483	174.11729	-659.58447	297.29532	157.90923	-623.56659	306.62836	158.68581	-557.10626	257.28271	164.34787	-528.11450	304.37653	146.40186	-680.09766	89.87999	1853.10828	-715.95410	66.13243	218.54538	-517.79797	-73.04517	142.95790	-550.76788	-31.24984	163.90349	-795.39819	179.57759	183.49622	-689.86316	66.64672	575.96234	-791.83887	36.55861	173.36443	-596.49182	94.54434	1363.35925	-754.24292	-52.13568	488.67355	-597.37048	23.09215	170.86092	-757.19397	-23.39700	206.63982	-876.03278	-79.07404	141.25008	-659.57977	-82.02242	874.68372	-680.84479	-69.21298	760.39960	-607.11603	-78.19186	155.62724	-648.88428	-70.26932	159.52040	-594.35699	210.58813	818.87885							-702.03668	-43.30424	617.68134	-709.34149	-40.47885	569.45807	
416	8.300	-690.56274	142.16426	580.80493	-614.89233	233.12051	1071.00464	-697.09412	278.48822	878.17621				-803.38446	79.86566	1054.70068	-703.85168	264.57697	747.76410	-732.97845	246.20927	645.65869	-691.46747	-91.18224	1537.47900	-586.47485	-8.93709	808.19446	-731.76074	244.90073	579.64453	-660.71912	9.64691	519.50073	-770.67175	255.55434	504.90292	-676.98480	203.57047	538.54590	-708.51849	269.91696	1544.99329	-710.76648	155.22331	218.25037	-767.52649	228.74812	205.59523	-882.49896	295.95609	144.54916	-672.23511	51.20076	162.85968	-674.56140	174.39108	159.68237	-592.12848	220.42734	174.04970	-659.44592	297.41446	158.00624	-623.56659	306.62836	158.68581	-556.99091	257.34692	164.24203	-528.03583	304.25760	146.54501	-684.14453	91.09547	1852.92810	-715.85620	66.19230	218.41949	-517.76086	-72.93391	142.97720	-550.82440	-31.32447	164.07503	-795.38684	179.41527	183.56400	-688.58710	66.32182	575.58160	-791.72552	36.47174	173.31807	-597.79193	94.53600	1363.55896	-753.42896	-52.12432	488.62863	-597.40198	23.03216	170.76485	-757.26422	-23.57438	206.69748	-875.96130	-78.84709	141.39201	-657.82043	-82.28967	874.59851	-678.56451	-69.69962	760.52478	-607.00079	-78.08746	155.65141	-648.90442	-70.28777	159.54663	-591.98047	210.24683	819.39917							-701.10699	-43.36251	617.51392	-708.63062	-40.34165	569.39423	
417	8.320	-689.14777	141.65923	580.54169	-613.53821	233.56018	1071.27454	-695.64764	278.32819	878.18079				-802.02179	79.70454	1054.46899	-702.21283	263.99899	747.85077	-731.58527	246.32799	646.01306	-694.68628	-90.82868	1537.55615	-584.84418	-9.32847	808.27087	-730.86810	244.63959	579.57782	-659.82111	9.20605	519.34064	-769.57697	255.17270	504.72665	-676.20581	203.45291	538.65680	-711.93445	270.02676	1544.34302	-710.79004	154.96678	218.01544	-767.31427	228.57188	205.67415	-882.45056	295.99521	144.63437	-672.23511	51.20076	162.85968	-674.46466	174.34009	159.57945	-591.98590	220.23273	174.20963	-659.62024	297.32739	158.29936	-623.56659	306.62836	158.68581	-556.89185	257.33975	164.17711	-527.91150	303.97452	146.55840	-688.06683	91.74816	1852.68323	-715.67181	65.92178	218.66089	-517.79797	-73.04517	142.95790	-550.76703	-31.34651	164.21245	-795.15405	179.18777	183.80966	-687.38159	66.41927	575.79230	-791.72290	36.45426	173.25154	-599.05499	94.72179	1364.34229	-752.88831	-52.15250	488.91174	-597.48517	23.11459	170.68500	-757.26337	-23.39411	206.55597	-875.95648	-78.79716	141.44162	-655.44287	-82.13053	874.24365	-677.18683	-68.98622	759.88116	-607.00079	-78.08746	155.65141	-648.88452	-70.37012	159.49445	-590.73291	210.53270	819.12323							-699.33478	-43.21992	617.53394	-707.06409	-40.33635	569.22064	
418	8.340	-688.05865	142.15540	580.58508	-612.07660	233.24559	1070.80676	-693.58942	279.55045	878.58081				-799.81866	79.90800	1053.96277	-700.94232	264.21051	747.96625	-730.51056	245.93860	645.56116	-697.87512	-90.76186	1537.93103	-583.55988	-8.89900	807.66650	-729.23785	244.51390	579.48328	-659.00897	9.44677	519.02966	-768.47717	254.92694	504.62415	-674.61597	203.39297	538.21704	-715.13440	270.34326	1543.83984	-710.78284	154.98514	217.72496	-767.38635	228.58319	205.78488	-882.54272	296.14630	144.66705	-672.37885	51.29278	162.76588	-674.45563	174.36546	159.31612	-591.89594	220.11577	174.08025	-659.55396	297.28757	158.25095	-623.56659	306.62836	158.68581	-556.77631	257.17059	164.09756	-528.11450	304.37653	146.40186	-691.70856	92.04016	1852.23950	-715.67181	65.92178	218.66089	-517.76086	-72.93391	142.97720	-550.88446	-31.27852	164.06551	-795.28345	178.96504	184.21655	-686.18170	66.37926	575.71265	-791.49878	36.35331	173.39444	-600.38434	94.74068	1364.39832	-751.93884	-52.09648	488.84091	-597.57855	23.24490	170.60944	-757.14362	-23.36187	206.47815	-875.85034	-78.68372	141.27127	-653.57629	-82.27211	874.42609	-675.84363	-68.91615	760.03400	-607.00079	-78.08746	155.65141	-648.75421	-70.29456	159.47250	-588.95776	210.62234	818.93835							-698.39667	-43.07997	617.51978	-706.17352	-40.09126	568.92279	
419	8.360	-686.87976	141.99968	580.55646	-610.31512	233.41620	1070.79211	-692.23907	279.33356	878.29010	-590.28668	-13.66951	1056.43945	-798.24402	79.50472	1053.43982	-699.63824	264.23068	747.79572	-729.11835	246.41475	645.97528	-701.05188	-90.36985	1537.84644	-581.82983	-8.94664	807.18750	-728.45703	244.45551	579.55206	-658.07758	9.78997	518.84613	-767.90942	255.10774	504.75620	-674.00690	203.51950	538.14569	-717.95093	270.33459	1543.02869	-710.94318	154.86726	217.66061	-767.38635	228.58319	205.78488	-882.60938	295.91949	144.45216	-672.23511	51.20076	162.85968	-674.45660	174.19885	159.51208	-592.05786	220.05341	173.92751	-659.36908	297.05093	158.35782	-623.56659	306.62836	158.68581	-556.69598	257.21808	164.07480	-528.11450	304.37653	146.40186	-694.70776	92.71995	1851.67383	-715.53247	65.92184	218.51175	-517.79797	-73.04517	142.95790	-550.82764	-31.30136	164.20163	-795.06775	179.02911	183.99062	-685.36334	66.34863	575.83875	-791.58881	36.61987	173.33453	-601.52917	94.75846	1364.80042	-751.11945	-51.96856	489.06561	-597.55353	23.40424	170.41998	-757.22052	-23.19379	206.61610	-875.93463	-78.91189	141.34561	-652.01971	-82.04252	874.09631	-674.48798	-69.02061	759.80139	-607.00079	-78.08746	155.65141	-648.94678	-70.34605	159.40088	-587.27594	210.45149	819.04315							-697.17273	-43.41152	617.62494	-705.47729	-39.99244	568.87872	
420	8.380	-687.72070	141.75520	580.66205	-608.15125	233.95854	1070.81226	-690.76996	279.45374	878.12421	-588.39587	-13.47590	1056.51819	-796.13525	79.28499	1052.81262	-698.44226	264.05911	747.85999	-728.62445	245.83971	645.62897	-703.88678	-90.04411	1537.72473	-580.42303	-8.63506	807.24902	-728.06750	244.12778	579.62360	-657.15729	9.62740	518.93225	-767.54291	254.75150	504.96365	-673.34283	203.32159	537.85901	-720.65472	270.75552	1542.32886	-710.62097	154.81734	217.41681	-767.26569	228.33450	205.71715	-882.71234	296.15414	144.60722	-672.11731	51.34681	162.59862	-674.64954	174.33502	159.03470	-591.89594	220.11577	174.08025	-659.47095	297.19577	158.17386	-623.56659	306.62836	158.68581	-556.72400	257.14404	164.07304	-528.07770	304.24625	146.45256	-697.70667	92.92170	1851.15381	-715.57019	66.25077	218.45615	-517.76086	-72.93391	142.97720	-550.70050	-31.20735	164.04161	-795.03595	179.01364	183.95137	-684.64557	66.43932	575.66919	-791.57605	36.58691	173.43906	-602.24097	94.96913	1365.03259	-750.83441	-51.89164	489.25241	-597.61621	23.47645	170.43712	-757.25879	-23.27198	206.66837	-875.87347	-78.77656	141.15236	-649.90393	-82.10390	873.70221	-673.10004	-68.96125	759.30450	-607.06860	-78.08340	155.58453	-648.88452	-70.37012	159.49445	-586.03467	210.81601	818.57172							-696.69928	-43.06012	617.67084	-704.83582	-39.56158	568.80908	
